<svg width="55" height="55" xmlns="http://www.w3.org/2000/svg" xmlns:xlink="http://www.w3.org/1999/xlink" xml:space="preserve" overflow="hidden"><g transform="translate(-142 -157)"><path d="M164.63 182.552C164.63 185.4 162.322 187.708 159.474 187.708 156.626 187.708 154.318 185.4 154.318 182.552 154.318 179.704 156.626 177.396 159.474 177.396 162.322 177.396 164.63 179.704 164.63 182.552Z"/><path d="M183.536 207.417 183.536 202.26C183.558 201.444 183.171 200.671 182.505 200.198 181.021 199.036 179.3 198.215 177.464 197.792 176.087 197.378 174.661 197.147 173.224 197.104 171.783 197.109 170.353 197.341 168.984 197.792 167.174 198.287 165.467 199.102 163.943 200.198 163.296 200.687 162.915 201.45 162.911 202.26L162.911 207.417Z"/><path d="M178.38 190.573C178.38 193.421 176.072 195.729 173.224 195.729 170.376 195.729 168.068 193.421 168.068 190.573 168.068 187.725 170.376 185.417 173.224 185.417 176.072 185.417 178.38 187.725 178.38 190.573Z"/><path d="M162.568 198.365 162.568 198.365C164.176 197.217 165.955 196.327 167.839 195.729 166.536 194.372 165.798 192.569 165.776 190.688L165.776 190.458C165.107 190.178 164.417 189.948 163.714 189.771 162.337 189.357 160.911 189.126 159.474 189.083 158.033 189.088 156.603 189.32 155.234 189.771 153.442 190.315 151.743 191.126 150.193 192.177 149.527 192.65 149.14 193.423 149.161 194.24L149.161 199.396 161.536 199.396C161.821 198.997 162.169 198.649 162.568 198.365Z"/><path d="M188.607 161.583 166.968 161.583C166.305 161.59 165.773 162.13 165.776 162.792L165.776 177.545C165.763 178.209 166.292 178.758 166.956 178.771 166.96 178.771 166.964 178.771 166.968 178.771L170.405 178.771 170.405 183.606 175.155 178.771 188.607 178.771C189.27 178.765 189.804 178.225 189.804 177.562L189.804 162.792C189.804 162.129 189.27 161.59 188.607 161.583ZM177.687 176.622C176.985 176.622 176.415 176.053 176.415 175.35 176.415 174.648 176.985 174.079 177.687 174.079 178.383 174.079 178.949 174.638 178.959 175.333 178.972 176.032 178.415 176.61 177.716 176.622 177.706 176.622 177.697 176.622 177.687 176.622ZM178.506 171.38 178.506 173.185 176.873 173.185 176.873 169.81 177.687 169.81C179.108 169.81 180.024 168.98 180.024 167.702 180.047 166.437 179.039 165.393 177.774 165.37 177.745 165.37 177.716 165.37 177.687 165.37 176.509 165.261 175.465 166.127 175.355 167.306 175.343 167.437 175.343 167.57 175.355 167.702L175.355 167.845 173.722 167.845 173.722 167.702C173.599 165.633 175.175 163.856 177.244 163.732 177.392 163.723 177.54 163.723 177.687 163.732 179.854 163.706 181.632 165.443 181.657 167.61 181.658 167.641 181.658 167.671 181.657 167.702 181.713 169.557 180.348 171.151 178.506 171.38Z"/></g></svg>