<svg width="54" height="54" xmlns="http://www.w3.org/2000/svg" xmlns:xlink="http://www.w3.org/1999/xlink" xml:space="preserve" overflow="hidden"><g transform="translate(-143 -269)"><path d="M171.125 285.875 168.875 285.875C167.637 285.875 166.625 284.862 166.625 283.625L166.625 279.125C166.625 277.888 167.637 276.875 168.875 276.875L171.125 276.875C172.363 276.875 173.375 277.888 173.375 279.125L173.375 283.625C173.375 284.862 172.363 285.875 171.125 285.875Z"/><path d="M188 297.125 174.5 297.125 174.5 294.875 188 294.875 188 297.125ZM188 303.875 174.5 303.875 174.5 301.625 188 301.625 188 303.875ZM188 310.625 174.5 310.625 174.5 308.375 188 308.375 188 310.625ZM170 310.625 152 310.625 152 306.125C152 305.45 152.337 304.775 152.9 304.325 154.137 303.425 155.712 302.638 157.288 302.188 158.525 301.85 159.762 301.625 161 301.625 162.35 301.625 163.587 301.85 164.712 302.188 166.288 302.638 167.863 303.312 169.1 304.325 169.663 304.775 170 305.45 170 306.125L170 310.625ZM161 291.5C163.475 291.5 165.5 293.525 165.5 296 165.5 298.475 163.475 300.5 161 300.5 158.525 300.5 156.5 298.475 156.5 296 156.5 293.525 158.525 291.5 161 291.5ZM190.25 283.625 175.625 283.625C175.625 286.1 173.6 288.125 171.125 288.125L168.875 288.125C166.4 288.125 164.375 286.1 164.375 283.625L149.75 283.625C148.512 283.625 147.5 284.638 147.5 285.875L147.5 312.875C147.5 314.112 148.512 315.125 149.75 315.125L190.25 315.125C191.488 315.125 192.5 314.112 192.5 312.875L192.5 285.875C192.5 284.638 191.488 283.625 190.25 283.625Z"/></g></svg>