<svg width="55" height="55" xmlns="http://www.w3.org/2000/svg" xmlns:xlink="http://www.w3.org/1999/xlink" xml:space="preserve" overflow="hidden"><g transform="translate(-143 -372)"><path d="M159.557 393.198 188.26 393.198 188.26 390.333C188.26 389.073 187.229 388.042 185.969 388.042L168.781 388.042 162.479 383.859C162.078 383.63 161.677 383.458 161.219 383.458L150.448 383.458C149.188 383.458 148.156 384.49 148.156 385.75L148.156 413.823C148.156 413.938 155.547 395.891 155.547 395.891 156.234 394.286 157.781 393.198 159.557 393.198Z"/><path d="M192.844 397.781C192.844 396.578 191.984 395.604 190.781 395.49L159.557 395.49C158.698 395.49 157.953 396.005 157.609 396.75L149.875 415.542 184.823 415.542 192.615 398.812C192.786 398.469 192.844 398.125 192.844 397.781L192.844 397.781Z"/></g></svg>