<svg width="707" height="317" xmlns="http://www.w3.org/2000/svg" xmlns:xlink="http://www.w3.org/1999/xlink" xml:space="preserve" overflow="hidden"><g transform="translate(-769 -1617)"><path d="M772.5 1672.17C772.5 1643.63 795.632 1620.5 824.167 1620.5L1366.83 1620.5C1395.37 1620.5 1418.5 1643.63 1418.5 1672.17L1418.5 1878.83C1418.5 1907.37 1395.37 1930.5 1366.83 1930.5L824.167 1930.5C795.632 1930.5 772.5 1907.37 772.5 1878.83Z" stroke="#2F528F" stroke-width="6.875" stroke-miterlimit="8" fill="#FFFFFF" fill-rule="evenodd"/><g><g><g><path d="M134.859 86.625 110.25 86.625 110.25 31.5 78.75 31.5 78.75 86.625 54.1406 86.625 94.5 133.875Z" fill="#A5A5A5" transform="matrix(1 0 0 1.00529 1001 1680)"/><path d="M143.719 110.25 143.719 145.688 45.2813 145.688 45.2813 110.25 33.4688 110.25 33.4688 157.5 155.531 157.5 155.531 110.25Z" fill="#A5A5A5" transform="matrix(1 0 0 1.00529 1001 1680)"/></g></g></g><text font-family="DengXian,DengXian_MSFontService,sans-serif" font-weight="700" font-size="55" transform="matrix(1 0 0 1 872.742 1793)">点击下载交集名单</text></g></svg>