<svg width="34" height="35" xmlns="http://www.w3.org/2000/svg" xmlns:xlink="http://www.w3.org/1999/xlink" xml:space="preserve" overflow="hidden"><g transform="translate(17 -644)"><path d="M24.4729 12.75 6.48125 12.75 9.63333 9.59792C10.0229 9.17292 10.0229 8.53542 9.59792 8.11042 9.20833 7.72083 8.53542 7.68542 8.11042 8.075L3.11667 13.1042C3.01042 13.2104 2.93958 13.3167 2.86875 13.4583L2.86875 13.4583C2.86875 13.4937 2.83333 13.5292 2.83333 13.5646 2.83333 13.6 2.83333 13.6 2.79792 13.6354 2.79792 13.6708 2.79792 13.7063 2.79792 13.7417 2.83333 13.8125 2.83333 13.8125 2.83333 13.8479 2.83333 13.8833 2.83333 13.8833 2.83333 13.9187 2.83333 14.1667 2.975 14.4146 3.15208 14.5917L8.14583 19.6208C8.57083 20.0104 9.20833 20.0104 9.63333 19.5854 10.0229 19.1958 10.0583 18.5229 9.66875 18.0979L6.375 14.875 24.4375 14.875C26.9875 14.875 29.0417 16.9292 29.0417 19.4792 29.0417 22.0292 26.9875 24.0833 24.4375 24.0833L3.89583 24.0833C3.29375 24.0833 2.83333 24.5438 2.83333 25.1458 2.83333 25.7479 3.29375 26.2083 3.89583 26.2083L24.4729 26.2083C28.1917 26.2083 31.2021 23.1979 31.2021 19.4792 31.2021 15.7604 28.1917 12.75 24.4729 12.75Z" fill="#FFFFFF" transform="matrix(1 0 0 1.02941 -17 644)"/></g></svg>