<svg width="96" height="96" xmlns="http://www.w3.org/2000/svg" xmlns:xlink="http://www.w3.org/1999/xlink" xml:space="preserve" overflow="hidden"><g transform="translate(-1065 -456)"><path d="M1089 483 1094.16 498.15C1090.93 500.271 1090.03 504.61 1092.15 507.843 1094.27 511.075 1098.61 511.976 1101.84 509.855 1103.81 508.561 1105 506.36 1105 504 1105 503.099 1104.82 502.207 1104.49 501.37L1114.84 493.62C1116.04 494.513 1117.5 494.997 1119 495L1119.1 495 1125.83 516.39C1122.73 518.702 1122.09 523.088 1124.41 526.187 1126.72 529.285 1131.1 529.922 1134.2 527.61 1137.3 525.298 1137.94 520.912 1135.63 517.813 1134.3 516.038 1132.21 514.995 1130 515L1129.59 515 1122.92 493.8C1126.13 491.639 1126.97 487.288 1124.81 484.083 1122.65 480.877 1118.3 480.031 1115.09 482.192 1112.42 483.995 1111.32 487.393 1112.44 490.42L1102 498.25C1100.83 497.435 1099.43 496.998 1098 497L1098 497 1092.82 481.86C1096.06 479.745 1096.97 475.408 1094.85 472.171 1092.74 468.935 1088.4 468.025 1085.16 470.14 1081.93 472.255 1081.02 476.592 1083.13 479.829 1084.43 481.81 1086.63 483.003 1089 483Z"/><path d="M1142 533 1079 533 1079 539 1148 539 1148 469 1142 469 1142 533Z"/></g></svg>