<svg width="96" height="96" xmlns="http://www.w3.org/2000/svg" xmlns:xlink="http://www.w3.org/1999/xlink" xml:space="preserve" overflow="hidden"><g transform="translate(-743 -456)"><path d="M820.17 505.39C825.141 505.39 829.17 501.361 829.17 496.39 829.17 491.419 825.141 487.39 820.17 487.39 815.199 487.39 811.17 491.419 811.17 496.39 811.171 496.842 811.208 497.294 811.28 497.74L800.87 502.09C799.003 498.796 795.739 496.529 792 495.93L792 484.75C796.846 483.645 799.88 478.821 798.775 473.975 797.67 469.129 792.846 466.095 788 467.2 783.154 468.305 780.12 473.129 781.225 477.975 781.994 481.348 784.627 483.981 788 484.75L788 495.92C784.296 496.519 781.057 498.751 779.18 502L769.05 497.77C769.809 492.858 766.443 488.26 761.531 487.501 756.619 486.741 752.021 490.108 751.261 495.02 750.502 499.932 753.868 504.53 758.781 505.289 762.177 505.814 765.576 504.36 767.54 501.54L777.76 505.72C777.035 509.22 777.851 512.863 780 515.72L771.73 524.07C767.5 521.46 761.955 522.773 759.345 527.003 756.734 531.233 758.048 536.778 762.278 539.388 766.508 541.999 772.053 540.685 774.663 536.455 776.487 533.499 776.447 529.757 774.56 526.84L782.89 518.51C787.168 521.482 792.842 521.482 797.12 518.51L805.45 526.83C802.747 531.002 803.938 536.574 808.11 539.277 812.281 541.98 817.854 540.789 820.557 536.617 823.259 532.446 822.068 526.873 817.897 524.17 814.959 522.267 811.185 522.24 808.22 524.1L800 515.77C801.65 513.61 802.542 510.968 802.54 508.25 802.536 507.434 802.456 506.621 802.3 505.82L812.81 501.52C814.485 503.934 817.232 505.379 820.17 505.39ZM820.17 490.88C821.567 490.88 822.7 492.013 822.7 493.41 822.7 494.807 821.567 495.94 820.17 495.94 818.773 495.94 817.64 494.807 817.64 493.41 817.64 493.407 817.64 493.403 817.64 493.4 817.651 492.009 818.779 490.885 820.17 490.88ZM815.17 499.08C815.18 498.687 815.367 498.319 815.68 498.08 816.428 497.546 817.259 497.141 818.14 496.88 818.816 496.684 819.516 496.579 820.22 496.57 820.925 496.571 821.626 496.675 822.3 496.88 823.19 497.116 824.026 497.523 824.76 498.08 825.067 498.323 825.25 498.689 825.26 499.08L825.26 501 815.12 501ZM760.22 490.88C761.617 490.88 762.75 492.013 762.75 493.41 762.75 494.807 761.617 495.94 760.22 495.94 758.823 495.94 757.69 494.807 757.69 493.41 757.69 493.407 757.69 493.403 757.69 493.4 757.7 492.028 758.798 490.912 760.17 490.88ZM765.22 501.01 755.12 501.01 755.12 499.08C755.13 498.687 755.317 498.319 755.63 498.08 756.378 497.546 757.209 497.141 758.09 496.88 758.766 496.684 759.466 496.579 760.17 496.57 760.875 496.571 761.576 496.675 762.25 496.88 763.141 497.116 763.976 497.523 764.71 498.08 765.017 498.323 765.2 498.689 765.21 499.08ZM767 526.22C768.392 526.22 769.52 527.348 769.52 528.74 769.52 530.132 768.392 531.26 767 531.26 765.608 531.26 764.48 530.132 764.48 528.74 764.48 527.348 765.608 526.22 767 526.22ZM772 536.34 762 536.34 762 534.41C762.009 534.019 762.192 533.652 762.5 533.41 763.247 532.878 764.079 532.475 764.96 532.22 765.623 532.021 766.308 531.91 767 531.89 767.705 531.893 768.406 532.001 769.08 532.21 769.97 532.441 770.806 532.846 771.54 533.4 771.848 533.642 772.031 534.009 772.04 534.4ZM790 470.47C791.392 470.47 792.52 471.598 792.52 472.99 792.52 474.382 791.392 475.51 790 475.51 788.612 475.51 787.485 474.388 787.48 473 787.474 471.608 788.598 470.475 789.99 470.47 789.993 470.47 789.997 470.47 790 470.47ZM785 480.59 785 478.66C785.009 478.269 785.192 477.902 785.5 477.66 786.247 477.128 787.079 476.725 787.96 476.47 788.623 476.271 789.308 476.16 790 476.14 790.705 476.143 791.406 476.251 792.08 476.46 792.97 476.691 793.806 477.096 794.54 477.65 794.848 477.892 795.031 478.259 795.04 478.65L795.04 480.58ZM790 500.59C791.938 500.585 793.515 502.151 793.52 504.09 793.526 506.029 791.958 507.604 790.02 507.61 788.081 507.616 786.505 506.048 786.5 504.11 786.5 504.107 786.5 504.103 786.5 504.1 786.5 502.165 788.065 500.595 790 500.59ZM797 514.66 783 514.66 783 512C783.013 511.452 783.27 510.939 783.7 510.6 784.738 509.855 785.894 509.29 787.12 508.93 788.056 508.654 789.024 508.503 790 508.48 790.979 508.483 791.953 508.628 792.89 508.91 794.13 509.232 795.293 509.8 796.31 510.58 796.742 510.926 796.995 511.447 797 512ZM813 526.22C814.392 526.22 815.52 527.348 815.52 528.74 815.52 530.132 814.392 531.26 813 531.26 811.608 531.26 810.48 530.132 810.48 528.74 810.48 527.348 811.608 526.22 813 526.22ZM808 534.41C808.009 534.019 808.192 533.652 808.5 533.41 809.247 532.878 810.079 532.475 810.96 532.22 811.623 532.021 812.308 531.91 813 531.89 813.705 531.893 814.406 532.001 815.08 532.21 815.97 532.441 816.806 532.846 817.54 533.4 817.848 533.642 818.031 534.009 818.04 534.4L818.04 536.33 808 536.33Z"/></g></svg>