<svg width="528" height="211" xmlns="http://www.w3.org/2000/svg" xmlns:xlink="http://www.w3.org/1999/xlink" xml:space="preserve" overflow="hidden"><defs><filter id="fx0" x="-10%" y="-10%" width="120%" height="120%" filterUnits="userSpaceOnUse" primitiveUnits="userSpaceOnUse"><feComponentTransfer color-interpolation-filters="sRGB"><feFuncR type="discrete" tableValues="0 0"/><feFuncG type="discrete" tableValues="0 0"/><feFuncB type="discrete" tableValues="0 0"/><feFuncA type="linear" slope="0.4" intercept="0"/></feComponentTransfer><feGaussianBlur stdDeviation="6.11111 6.11111"/></filter><filter id="fx1" x="-10%" y="-10%" width="120%" height="120%" filterUnits="userSpaceOnUse" primitiveUnits="userSpaceOnUse"><feComponentTransfer color-interpolation-filters="sRGB"><feFuncR type="discrete" tableValues="0 0"/><feFuncG type="discrete" tableValues="0 0"/><feFuncB type="discrete" tableValues="0 0"/><feFuncA type="linear" slope="0.4" intercept="0"/></feComponentTransfer><feGaussianBlur stdDeviation="6.11111 6.11111"/></filter><clipPath id="clip2"><rect x="2758" y="1573" width="528" height="211"/></clipPath><clipPath id="clip3"><path d="M2783.5 1590.5 2783.5 1724.5 3185.5 1724.5 3252.5 1657.5 3185.5 1590.5ZM2758 1573 3286 1573 3286 1784 2758 1784Z" fill-rule="evenodd" clip-rule="evenodd"/></clipPath><clipPath id="clip4"><rect x="49" y="35" width="403" height="121"/></clipPath></defs><g clip-path="url(#clip2)" transform="translate(-2758 -1573)"><g clip-path="url(#clip3)"><g filter="url(#fx0)" transform="translate(2770 1577)"><g><path d="M23.2227 23.2228 425.223 23.2228 492.223 90.2231 425.223 157.223 23.2227 157.223Z" stroke="#000000" stroke-width="7" stroke-miterlimit="8" fill="#FFFFFF" fill-rule="evenodd"/></g></g><g clip-path="url(#clip4)" filter="url(#fx1)" transform="translate(2757 1572)"><g><path d="M20.75-39.7573C18.6426-42.6483 16.238-45.4447 13.5361-48.1465L17.0215-50.6997C19.345-48.2681 21.6686-45.6203 23.9922-42.7563 27.7477-46.2417 30.9224-50.2269 33.5161-54.7119L20.0205-54.7119C18.2913-54.7119 16.265-54.5363 13.9414-54.1851L13.9414-59.332C16.5892-59.0078 18.6696-58.8457 20.1826-58.8457L35.3398-58.8457C37.1771-58.8457 39.2034-59.0078 41.4189-59.332 37.5013-50.8213 32.0841-43.6344 25.1675-37.7715 26.8156-37.4473 28.2205-37.2852 29.3823-37.2852L54.3472-37.2852C55.4549-37.2852 56.9814-37.4473 58.9268-37.7715 52.8476-42.4726 47.7547-50.0783 43.6479-60.5884L47.7412-62.0068C48.6058-59.4131 49.646-57.0625 50.8618-54.9551 55.2928-57.9271 58.8187-60.8856 61.4394-63.8306L65.168-59.4131C65.4111-59.1159 65.5327-58.8592 65.5327-58.6431 65.5327-58.562 65.5192-58.4945 65.4922-58.4404 65.3841-58.2243 65.0464-58.1162 64.479-58.1162 63.1551-58.1162 62.0203-57.8325 61.0747-57.2651 60.5884-56.9409 59.7643-56.4411 58.6025-55.7656 56.1169-54.2796 54.0365-53.0368 52.3613-52.0371 53.5231-50.1458 54.7659-48.4842 56.0898-47.0522 61.7907-50.5376 65.8974-53.6987 68.4101-56.5356L72.4629-52.1182C72.9492-51.6318 73.1383-51.213 73.0303-50.8618 72.8681-50.5916 72.4899-50.4836 71.8955-50.5376 71.6523-50.5646 71.3686-50.5781 71.0444-50.5781 69.9097-50.5781 68.91-50.3214 68.0454-49.8081 65.8299-48.5382 62.7093-46.7145 58.6836-44.3369 64.7627-38.8522 72.0981-35.3128 80.6899-33.7187 78.6906-32.0436 77.4072-30.2334 76.8398-28.2881 70.2204-30.5036 64.6951-33.381 60.2642-36.9204L60.2642-32.6245C57.7785-32.9487 55.8061-33.1108 54.3472-33.1108L29.3823-33.1108C27.6802-33.1108 25.5728-32.9487 23.0601-32.6245L23.0601-36.1099C18.7642-32.3543 13.7117-28.7339 7.90283-25.2485 6.84912-26.8966 5.24154-28.4367 3.08008-29.8687 9.10514-31.7059 14.9951-35.0021 20.75-39.7573ZM26.3022-3.56641 30.5576-6.32227C33.4215-2.16146 35.8802 1.52653 37.9336 4.7417L46.5659 4.7417C49.4839 0.526855 51.6724-3.59342 53.1313-7.61914L58.6025-5.14697C59.251-4.82275 59.5752-4.5188 59.5752-4.23511 59.5752-3.95142 59.251-3.7015 58.6025-3.48535 57.2786-3.05306 56.1709-2.13444 55.2793-0.729492 54.0635 1.24284 52.8747 3.06657 51.7129 4.7417L69.707 4.7417C71.4902 4.7417 73.6787 4.56608 76.2725 4.21484L76.2725 9.36182C73.7868 9.0376 71.5983 8.87549 69.707 8.87549L15.3599 8.87549C13.4686 8.87549 11.145 9.0376 8.38916 9.36182L8.38916 4.21484C11.2531 4.56608 13.5767 4.7417 15.3599 4.7417L32.0571 4.7417C30.382 1.95882 28.4637-0.810547 26.3022-3.56641ZM19.9395-7.61914C20.2637-10.1859 20.4258-12.2933 20.4258-13.9414L20.4258-19.4126C20.4258-21.0337 20.2637-23.3032 19.9395-26.2212 22.4251-25.897 24.492-25.7349 26.1401-25.7349L57.6704-25.7349C59.7778-25.7349 62.0203-25.897 64.3979-26.2212 64.0737-23.4113 63.9116-21.1688 63.9116-19.4937L63.9116-14.0225C63.9116-12.2122 64.0737-10.0778 64.3979-7.61914 61.6961-8.02441 59.5076-8.20003 57.8325-8.146L26.1401-8.146C24.492-8.146 22.4251-7.97038 19.9395-7.61914ZM59.251-12.2798 59.251-21.5605 25.0459-21.5605 25.0459-12.2798ZM137.617-37.6094 138.955-45.8364 110.788-45.8364C109.086-45.7554 106.938-45.5798 104.344-45.3096L104.344-50.4565C107.262-50.1323 109.41-49.9702 110.788-49.9702L139.765-49.9702 140.94-57.6704 108.397-57.6704C107.019-57.6164 104.885-57.4543 101.994-57.1841L101.994-62.331C104.993-62.0068 107.127-61.8447 108.397-61.8447L140.333-61.8447C142.17-61.8447 144.412-61.9798 147.06-62.25 146.52-60.5478 145.966-58.3324 145.398-55.6035L142.359-37.6094 153.301-37.6094C155.247-37.6634 157.435-37.8255 159.867-38.0957L159.867-32.9487C157.192-33.2189 155.003-33.381 153.301-33.4351L126.31-33.4351 126.31-27.6396C128.417-23.5869 130.768-19.8584 133.362-16.4541 139.738-21.2633 144.615-25.6538 147.992-29.6255L152.977-24.3975C153.382-23.9381 153.585-23.6274 153.585-23.4653 153.585-23.4113 153.571-23.3708 153.544-23.3437 153.436-23.1006 152.909-23.006 151.964-23.0601 150.586-23.2492 149.005-22.6683 147.222-21.3174 146.52-20.8311 145.479-20.061 144.102-19.0073 140.832-16.6838 138.117-14.752 135.956-13.2119 141.927-5.99805 150.194-0.986165 160.758 1.82373 158.543 3.03955 156.881 4.78223 155.773 7.05176 141.994 0.45931 132.173-8.28109 126.31-19.1694L126.31 3.97168C126.364 6.70052 125.506 8.57153 123.737 9.58472 121.967 10.5979 118.515 11.2531 113.382 11.5503 113.328 9.11865 112.612 6.95719 111.234 5.06592 113.449 5.57926 115.287 5.83594 116.746 5.83594 120.15 5.83594 121.798 4.52555 121.69 1.90479L121.69-14.7925C108.559-6.03857 98.873 0.878093 92.6318 5.95752L88.4575 1.01318C92.5643 0.0135092 103.642-7.02474 121.69-20.1016L121.69-33.4351 94.2934-33.4351C92.6183-33.4351 90.4839-33.2729 87.8901-32.9487L87.8901-38.0957C90.3218-37.8255 92.4562-37.6634 94.2934-37.6094ZM97.6977-26.1401 101.507-29.3013C104.506-26.0321 107.803-22.1279 111.396-17.5889L107.222-14.3467C104.25-18.5615 101.075-22.4927 97.6977-26.1401Z" fill="#595959" transform="matrix(1 0 0 1 69.0867 122)"/><path d="M5.47119 3.24219 0.243164 3.24219 26.0591-55.7656 31.0845-55.7656Z" fill="#595959" transform="matrix(1 0 0 1 234.087 122)"/><path d="M3.48535-35.5425C3.97168-35.9748 4.97135-37.2176 6.48437-39.271 11.4017-36.2179 16.0488-32.8947 20.4258-29.3013 19.264-27.7612 18.3184-26.3158 17.5889-24.9648 14.5628-27.9098 9.86165-31.4357 3.48535-35.5425ZM5.14697 7.29492C12.4419-2.48568 17.805-11.9421 21.2363-21.0742 22.0739-19.7503 23.2897-18.2103 24.8838-16.4541 20.3447-8.2946 15.3734 0.959147 9.96973 11.3071 8.80794 9.90218 7.20036 8.56478 5.14697 7.29492ZM9.80762-56.5356 12.7661-60.5073C17.2511-57.3462 21.8442-53.8608 26.5454-50.0513L23.2222-46.1606C18.1427-50.6457 13.6712-54.104 9.80762-56.5356ZM31.2061 3.64746 50.5376 3.64746 50.5376-19.6558 37.7715-19.6558C35.61-19.6558 33.4215-19.4936 31.2061-19.1694L31.2061-24.3164C33.2054-23.9922 35.3939-23.8301 37.7715-23.8301L50.5376-23.8301 50.5376-42.1484 35.2588-42.1484C33.2865-42.1484 31.1115-41.9863 28.7339-41.6621L28.7339-46.8091C30.382-46.4849 32.557-46.3228 35.2588-46.3228L70.3149-46.3228C73.1789-46.3228 75.3268-46.4849 76.7588-46.8091L76.7588-41.6621C74.4893-41.9863 72.3413-42.1484 70.3149-42.1484L55.1982-42.1484 55.1982-23.8301 67.3159-23.8301C69.4233-23.8301 71.6118-23.9922 73.8813-24.3164L73.8813-19.1694C71.7199-19.4936 69.5314-19.6558 67.3159-19.6558L55.1982-19.6558 55.1982 3.64746 72.625 3.64746C74.6784 3.64746 76.8669 3.51237 79.1904 3.24219L79.1904 8.3081C77.029 7.95687 74.8405 7.78125 72.625 7.78125L31.2061 7.78125C28.7744 7.78125 26.5859 7.95687 24.6406 8.3081L24.6406 3.24219C27.3154 3.51237 29.5039 3.64746 31.2061 3.64746ZM42.7563-60.5884 46.2417-63.9116C50.1593-60.4803 54.1986-56.5491 58.3594-52.1182L54.4282-48.4707C51.3481-52.3343 47.4575-56.3735 42.7563-60.5884ZM85.9043 7.61914C90.4974 4.53906 93.591 0.391764 95.1851-4.82275 96.8602-9.90218 97.6437-17.8726 97.5356-28.7339L94.0503-28.7339C91.9969-28.6798 89.7003-28.5042 87.1606-28.207L87.1606-33.354C89.6463-33.0838 91.9158-32.9217 93.9692-32.8677L97.5356-32.8677 97.5356-54.2661C97.4816-56.2114 97.306-58.562 97.0088-61.3179 99.8997-61.0477 102.345-60.8856 104.344-60.8315L113.382-60.8315C115.759-60.8856 118.191-61.0477 120.677-61.3179 120.407-58.7782 120.244-56.4546 120.19-54.3472L120.19-32.8677 129.795-32.8677 129.795-54.3472C129.741-56.4005 129.579-58.7241 129.309-61.3179 132.254-61.0477 134.659-60.8856 136.523-60.8315L146.574-60.8315C148.627-60.8856 150.897-61.0477 153.382-61.3179 153.112-58.7782 152.95-56.4546 152.896-54.3472L152.896-32.8677 155.854-32.8677C158.016-32.9217 160.204-33.0838 162.42-33.354L162.42-28.207C160.258-28.5042 158.097-28.6798 155.936-28.7339L152.896-28.7339 152.896-0.162109C153.058 4.5931 152.45 7.44352 151.072 8.38916 150.127 9.60498 146.547 10.6317 140.333 11.4692 139.9 9.68603 138.941 7.4165 137.455 4.66064 140.319 5.06592 142.507 5.26855 144.02 5.26855 145.182 5.26855 146.006 5.14697 146.493 4.90381 147.763 4.49853 148.343 2.94499 148.235 0.243164L148.235-28.7339 134.456-28.7339C134.618-18.2778 134.172-10.6317 133.119-5.79541 132.173-0.824056 129.93 4.67415 126.391 10.6992 124.527 9.59147 122.46 8.61881 120.19 7.78125 124.216 4.53906 126.864 0.310709 128.134-4.90381 129.269-8.95654 129.836-14.8465 129.836-22.5737 129.836-24.1678 129.795-26.2212 129.714-28.7339L120.19-28.7339 120.19-1.41846C120.298 2.90446 119.745 5.51172 118.529 6.40332 117.691 7.51107 114.476 8.49723 108.883 9.36182 107.938 6.98421 106.749 4.80924 105.317 2.83691 108.208 3.16113 110.369 3.32324 111.801 3.32324 112.828 3.32324 113.544 3.24219 113.949 3.08008 115.111 2.8099 115.638 1.44548 115.53-1.01318L115.53-28.7339 102.156-28.7339C102.264-18.7642 101.629-11.145 100.251-5.87646 98.9811-0.472819 96.2793 5.16048 92.1455 11.0234 90.6325 10.0508 88.5521 8.91601 85.9043 7.61914ZM102.156-32.8677 115.53-32.8677 115.53-56.6978 102.156-56.6978ZM134.456-56.6978 134.456-32.8677 148.235-32.8677 148.235-56.6978Z" fill="#595959" transform="matrix(1 0 0 1 265.024 122)"/></g></g></g><path d="M2783.5 1590.5 3185.5 1590.5 3252.5 1657.5 3185.5 1724.5 2783.5 1724.5Z" stroke="#000000" stroke-width="6.875" stroke-miterlimit="8" fill="#FFFFFF" fill-rule="evenodd"/><text fill="#595959" font-family="DengXian,DengXian_MSFontService,sans-serif" font-weight="400" font-size="83" transform="matrix(1 0 0 1 2816.36 1684)">登录</text><text fill="#595959" font-family="DengXian,DengXian_MSFontService,sans-serif" font-weight="400" font-size="83" transform="matrix(1 0 0 1 2981.36 1684)">/</text><text fill="#595959" font-family="DengXian,DengXian_MSFontService,sans-serif" font-weight="400" font-size="83" transform="matrix(1 0 0 1 3012.3 1684)">注册</text></g></svg>